<svg xmlns="http://www.w3.org/2000/svg" viewBox="0 0 1200 500" role="img" aria-label="Valorant Betting India">
  <defs>
    <linearGradient id="bg" x1="0" y1="0" x2="1" y2="1">
      <stop offset="0" stop-color="#0a1030"/>
      <stop offset="1" stop-color="#14224f"/>
    </linearGradient>
    <linearGradient id="glow" x1="0" y1="0" x2="0" y2="1">
      <stop offset="0" stop-color="#ff4655" stop-opacity="0.35"/>
      <stop offset="1" stop-color="#ff4655" stop-opacity="0"/>
    </linearGradient>
  </defs>
  <rect width="1200" height="500" fill="url(#bg)"/>
  <g stroke="#ff4655" stroke-opacity="0.25" fill="none" stroke-width="2">
    <path d="M0 420 L1200 420"/>
    <path d="M0 430 L1200 430" stroke-dasharray="6 10"/>
    <circle cx="600" cy="140" r="120"/>
    <circle cx="600" cy="140" r="160" stroke-dasharray="4 12"/>
  </g>
  <rect x="440" y="30" width="320" height="240" fill="url(#glow)"/>
  <path d="M600 190 L540 70 h28 l32 74 32-74 h28z" fill="#ff4655"/><path d="M600 120 L575 70 h18 l7 16 7-16 h18z" fill="#ff4655" opacity="0.6"/>
  <rect x="60" y="60" width="190" height="44" rx="8" fill="#ff4655"/>
  <text x="155" y="90" text-anchor="middle" font-family="Arial, Helvetica, sans-serif" font-size="24" font-weight="700" fill="#ffffff">1xBET</text>
  <text x="60" y="330" font-family="Arial, Helvetica, sans-serif" font-size="64" font-weight="700" fill="#ffffff">Valorant Betting India</text>
  <text x="60" y="385" font-family="Arial, Helvetica, sans-serif" font-size="30" fill="#a9c4ff">VCT &amp; Champions — Match, Map &amp; Round Markets</text>
  <rect x="60" y="415" width="200" height="50" rx="8" fill="#28a745"/>
  <text x="160" y="448" text-anchor="middle" font-family="Arial, Helvetica, sans-serif" font-size="24" font-weight="700" fill="#ffffff">BET NOW</text>
</svg>